<svg xmlns="http://www.w3.org/2000/svg" width="32" height="32" viewBox="0 0 24 24" fill="none" stroke="currentColor" stroke-width="2" stroke-linecap="round" stroke-linejoin="round">
  <defs>
    <linearGradient id="brainGradient" x1="0%" y1="0%" x2="100%" y2="100%">
      <stop offset="0%" style="stop-color:#6366f1;stop-opacity:1" />
      <stop offset="50%" style="stop-color:#8b5cf6;stop-opacity:1" />
      <stop offset="100%" style="stop-color:#06b6d4;stop-opacity:1" />
    </linearGradient>
  </defs>
  <path stroke="url(#brainGradient)" d="M12 5a3 3 0 1 0-5.997.125 4 4 0 0 0-2.526 5.77 4 4 0 0 0 .556 6.588A4 4 0 1 0 12 18Z"/>
  <path stroke="url(#brainGradient)" d="M12 5a3 3 0 1 1 5.997.125 4 4 0 0 1 2.526 5.77 4 4 0 0 1-.556 6.588A4 4 0 1 1 12 18Z"/>
  <path stroke="url(#brainGradient)" d="M15 13a4.5 4.5 0 0 1-3-4 4.5 4.5 0 0 1-3 4"/>
  <path stroke="url(#brainGradient)" d="M17.599 6.5a3 3 0 0 0 .399-1.375"/>
  <path stroke="url(#brainGradient)" d="M6.003 5.125A3 3 0 0 0 6.401 6.5"/>
  <path stroke="url(#brainGradient)" d="M3.477 10.896a4 4 0 0 1 .585-.396"/>
  <path stroke="url(#brainGradient)" d="M19.938 10.5a4 4 0 0 1 .585.396"/>
  <path stroke="url(#brainGradient)" d="M6 18a4 4 0 0 1-1.967-.516"/>
  <path stroke="url(#brainGradient)" d="M19.967 17.484A4 4 0 0 1 18 18"/>
</svg>
